<svg width="92" height="64" version="1.1" xmlns="http://www.w3.org/2000/svg" desc="Created with imagetracer.js version 1.2.3" ><path fill="rgb(0,0,0)" stroke="rgb(0,0,0)" stroke-width="0" opacity="0" d="M 0 0 L 0.5 0 L 71.5 0 L 72 0.5 L 65.5 7 L 64.5 7 L 54.5 17 Q 53.3 17 53 17 L 53 17.5 L 53 19.5 L 52 20.5 L 52 21.5 L 48.5 25 L 46.5 25 L 45.5 24 L 44.5 24 L 43.5 23 L 42.5 23 L 41.5 22 L 40.5 22 L 39.5 21 L 38.5 21 L 37.5 20 L 35.5 20 L 34.5 19 L 33.5 19 L 32.5 18 L 31.5 18 L 30 16.5 L 30 13.5 L 29 12.5 L 29 10.5 L 27 8.5 L 27 7.5 L 25.5 6 L 24.5 6 L 22.5 4 L 21.5 4 L 20.5 3 L 18.5 3 L 17.5 2 L 12.5 2 L 11.5 3 L 9.5 3 L 8.5 4 L 7.5 4 L 6.5 5 L 5.5 5 L 2 8.5 L 2 10.5 L 3.5 12 L 8.5 12 L 9.5 13 L 13.5 13 L 14.5 14 L 16.5 14 L 19 16.5 L 19 17.5 L 20 18.5 L 20 20.5 L 17.5 23 L 16.5 23 L 15.5 24 L 10.5 24 L 9.5 23 L 4.5 23 L 3.5 22 L 0.5 22 L 0 22 L 0 21.5 L 0 0.5 L 0 0 Z " /><path fill="rgb(0,0,0)" stroke="rgb(0,0,0)" stroke-width="0" opacity="0" d="M 77.5 0 L 91.5 0 L 92 0 L 92 0.5 L 92 39.5 Q 91.5 40.5 91 39.5 L 91 38.5 L 89 36.5 Q 89 35.3 89 35 Q 88.8 35 87.5 35 L 85.5 33 L 84.5 33 L 83.5 32 L 82.5 32 L 81.5 31 L 72.5 31 L 71.5 32 L 70.5 32 L 69.5 33 L 68.5 33 L 67.5 34 L 66.5 34 L 65.5 33 L 64.5 33 L 63.5 32 L 61.5 32 L 60.5 31 L 59.5 31 L 58 29.5 L 58.5 29 L 60.5 29 L 61.5 28 L 63.5 28 L 69.5 22 L 70.5 22 L 75.5 17 L 76.5 17 L 84 9.5 L 84 8.5 L 83 7.5 L 83 5.5 L 78.5 1 Q 77.3 1.3 77 0.5 L 77.5 0 Z " /><path fill="rgb(0,0,0)" stroke="rgb(0,0,0)" stroke-width="0" opacity="0" d="M 0.5 27 Q 1.3 27.3 1 28.5 L 6.5 34 L 7.5 34 L 8.5 35 L 11.5 35 L 12.5 36 L 16.5 36 L 17.5 35 L 19.5 35 L 20.5 34 L 21.5 34 L 22.5 33 L 23.5 33 L 24.5 32 L 25.5 33 L 26.5 33 L 27.5 34 L 28.5 34 L 29.5 35 L 30.5 35 L 31.5 36 L 32.5 36 L 33.5 37 L 35.5 37 L 37 38.5 L 30.5 45 L 29.5 45 L 21.5 53 L 20.5 53 L 19.5 54 L 18.5 54 L 14 58.5 L 14 59.5 L 13 60.5 L 15.5 63 L 16.5 63 L 18.5 61 L 19.5 61 L 20.5 60 Q 21.8 60 22 60 Q 22 59.8 22 58.5 L 30.5 50 L 31.5 50 L 39.5 42 L 40.5 42 L 41.5 41 L 43.5 41 L 44.5 42 L 45.5 42 L 46.5 43 L 48.5 43 L 49.5 44 L 50.5 44 L 51.5 45 L 52.5 45 L 53.5 46 L 54.5 46 L 55.5 47 L 56.5 47 L 57.5 48 L 58.5 48 L 59.5 49 Q 60.8 49 61 49 L 61 49.5 L 61 51.5 L 62 52.5 L 62 53.5 L 63 54.5 L 63 55.5 L 64 56.5 L 64 57.5 L 69.5 63 Q 70.8 62.8 71 63.5 L 70.5 64 L 0.5 64 L 0 64 L 0 63.5 L 0 27.5 L 0.5 27 Z " /><path fill="rgb(0,0,0)" stroke="rgb(0,0,0)" stroke-width="0" opacity="0" d="M 76.5 42 L 77.5 42 L 78.5 43 L 83.5 43 L 84.5 44 L 89.5 44 L 90.5 45 Q 91.8 45 92 45 L 92 45.5 L 92 63.5 L 92 64 L 91.5 64 L 83.5 64 Q 82.5 63.5 83.5 63 L 84.5 63 L 90 57.5 L 90 55.5 L 90 55 Q 89.8 55 88.5 55 L 87.5 54 L 82.5 54 L 81.5 53 L 76.5 53 L 75.5 52 Q 74.3 52 74 52 Q 74 51.8 74 50.5 L 72 48.5 L 72 46.5 L 76.5 42 Z " /><path fill="rgb(128,204,40)" stroke="rgb(128,204,40)" stroke-width="0" opacity="0.9647058823529412" d="M 73.5 0 L 75.5 0 L 76.5 1 L 77.5 1 L 82 5.5 L 82 6.5 L 83 7.5 L 83 9.5 L 76.5 16 L 75.5 16 L 70.5 21 L 69.5 21 L 63.5 27 L 62.5 27 L 61.5 28 L 59.5 28 L 58.5 29 Q 57.3 28.8 57 29.5 L 58.5 31 L 59.5 31 L 60.5 32 L 61.5 32 L 62.5 33 L 63.5 33 L 64.5 34 L 65.5 34 L 66.5 35 L 67.5 35 L 68.5 34 L 69.5 34 L 70.5 33 L 71.5 33 L 72.5 32 L 82.5 32 L 83.5 33 L 84.5 33 L 91 39.5 L 91 41.5 L 92 42.5 Q 92 43.8 92 44 L 91.5 44 L 88.5 44 L 87.5 43 L 82.5 43 L 81.5 42 L 75.5 42 L 71 46.5 L 71 47.5 L 72 48.5 L 72 49.5 L 73 50.5 L 73 51.5 L 74.5 53 L 77.5 53 L 78.5 54 L 83.5 54 L 84.5 55 L 87.5 55 L 89 56.5 L 89 57.5 L 84.5 62 L 83.5 62 L 82.5 63 L 80.5 63 L 79.5 64 L 74.5 64 L 73.5 63 L 71.5 63 L 70.5 62 L 69.5 62 L 64 56.5 L 64 55.5 L 63 54.5 L 63 52.5 L 62 51.5 L 62 49.5 L 60.5 48 L 59.5 48 L 58.5 47 L 57.5 47 L 56.5 46 L 55.5 46 L 54.5 45 L 53.5 45 L 52.5 44 L 50.5 44 L 49.5 43 L 48.5 43 L 47.5 42 L 46.5 42 L 45.5 41 L 44.5 41 L 43.5 40 L 41.5 40 L 40.5 41 L 39.5 41 L 31.5 49 L 30.5 49 L 18.5 61 L 17.5 61 L 16.5 62 L 15.5 62 L 14 60.5 L 14 59.5 L 18.5 55 L 19.5 55 L 20.5 54 L 21.5 54 L 29.5 46 L 30.5 46 L 38 38.5 L 36.5 37 L 35.5 37 L 34.5 36 L 33.5 36 L 32.5 35 L 31.5 35 L 30.5 34 L 29.5 34 L 28.5 33 L 26.5 33 L 25.5 32 L 23.5 32 L 22.5 33 L 21.5 33 L 20.5 34 L 18.5 34 L 17.5 35 L 10.5 35 L 9.5 34 L 8.5 34 L 7.5 33 L 6.5 33 L 2 28.5 L 2 27.5 L 1 26.5 L 1 25.5 L 0 24.5 Q 0 23.3 0 23 L 0.5 23 L 5.5 23 L 6.5 24 L 11.5 24 L 12.5 25 L 15.5 25 L 16.5 24 L 17.5 24 L 21 20.5 L 21 18.5 L 19 16.5 L 19 15.5 L 16.5 13 L 12.5 13 L 11.5 12 L 7.5 12 L 6.5 11 L 3.5 11 L 3 11 L 3 10.5 L 3 8.5 L 5.5 6 L 6.5 6 L 8.5 4 L 10.5 4 L 11.5 3 L 18.5 3 L 19.5 4 L 21.5 4 L 28 10.5 L 28 11.5 L 29 12.5 L 29 15.5 L 30 16.5 L 30 17.5 L 31.5 19 L 33.5 19 L 34.5 20 L 35.5 20 L 36.5 21 L 37.5 21 L 38.5 22 L 39.5 22 L 40.5 23 L 41.5 23 L 42.5 24 L 44.5 24 L 45.5 25 L 46.5 25 L 47.5 26 L 48.5 25 L 49.5 25 L 53 21.5 L 53 19.5 L 64.5 8 L 65.5 8 L 73.5 0 Z " /><path fill="rgb(133,207,44)" stroke="rgb(133,207,44)" stroke-width="0" opacity="0.1803921568627451" d="M 76.5 0 Q 77.5 0.5 76.5 1 Q 75.5 0.5 76.5 0 Z " /><path fill="rgb(133,207,44)" stroke="rgb(133,207,44)" stroke-width="0" opacity="0.1803921568627451" d="M 78.5 1 L 82 4.5 L 81.5 5 L 78 1.5 L 78.5 1 Z " /><path fill="rgb(133,207,44)" stroke="rgb(133,207,44)" stroke-width="0" opacity="0.1803921568627451" d="M 13.5 2 L 16.5 2 L 17 2.5 L 16.5 3 L 13.5 3 Q 12.5 2.5 13.5 2 Z " /><path fill="rgb(133,207,44)" stroke="rgb(133,207,44)" stroke-width="0" opacity="0.1803921568627451" d="M 70.5 2 L 71 2.5 L 65.5 8 L 65 7.5 L 70.5 2 Z " /><path fill="rgb(133,207,44)" stroke="rgb(133,207,44)" stroke-width="0" opacity="0.1803921568627451" d="M 9.5 3 Q 10.8 2.8 11 3.5 Q 10.8 4.3 9.5 4 Q 8.5 3.5 9.5 3 Z " /><path fill="rgb(133,207,44)" stroke="rgb(133,207,44)" stroke-width="0" opacity="0.1803921568627451" d="M 19.5 3 Q 20.8 2.8 21 3.5 Q 20.8 4.3 19.5 4 Q 18.5 3.5 19.5 3 Z " /><path fill="rgb(133,207,44)" stroke="rgb(133,207,44)" stroke-width="0" opacity="0.1803921568627451" d="M 7.5 4 L 8 4.5 L 6.5 6 L 6 5.5 L 7.5 4 Z " /><path fill="rgb(133,207,44)" stroke="rgb(133,207,44)" stroke-width="0" opacity="0.1803921568627451" d="M 22.5 4 L 28 9.5 L 27.5 10 L 22 4.5 L 22.5 4 Z " /><path fill="rgb(133,207,44)" stroke="rgb(133,207,44)" stroke-width="0" opacity="0.1803921568627451" d="M 82.5 6 Q 83.5 6.5 82.5 7 Q 81.5 6.5 82.5 6 Z " /><path fill="rgb(133,207,44)" stroke="rgb(133,207,44)" stroke-width="0" opacity="0.1803921568627451" d="M 2.5 9 Q 3.3 9.3 3 10.5 Q 2.5 11.5 2 10.5 Q 1.8 9.3 2.5 9 Z " /><path fill="rgb(133,207,44)" stroke="rgb(133,207,44)" stroke-width="0" opacity="0.1803921568627451" d="M 83.5 9 L 84 9.5 L 79.5 14 L 79 13.5 L 83.5 9 Z " /><path fill="rgb(133,207,44)" stroke="rgb(133,207,44)" stroke-width="0" opacity="0.1803921568627451" d="M 4.5 11 L 6.5 11 L 7 11.5 L 6.5 12 L 4.5 12 Q 3.5 11.5 4.5 11 Z " /><path fill="rgb(133,207,44)" stroke="rgb(133,207,44)" stroke-width="0" opacity="0.1803921568627451" d="M 28.5 11 Q 29.5 11.5 28.5 12 Q 27.5 11.5 28.5 11 Z " /><path fill="rgb(133,207,44)" stroke="rgb(133,207,44)" stroke-width="0" opacity="0.1803921568627451" d="M 60.5 11 L 61 11.5 L 53.5 19 L 53 18.5 L 60.5 11 Z " /><path fill="rgb(133,207,44)" stroke="rgb(133,207,44)" stroke-width="0" opacity="0.1803921568627451" d="M 9.5 12 L 11.5 12 L 12 12.5 L 11.5 13 L 9.5 13 Q 8.5 12.5 9.5 12 Z " /><path fill="rgb(133,207,44)" stroke="rgb(133,207,44)" stroke-width="0" opacity="0.1803921568627451" d="M 15.5 13 Q 16.8 12.8 17 13.5 Q 16.8 14.3 15.5 14 Q 14.5 13.5 15.5 13 Z " /><path fill="rgb(133,207,44)" stroke="rgb(133,207,44)" stroke-width="0" opacity="0.1803921568627451" d="M 29.5 14 Q 30.3 14.3 30 15.5 Q 29.5 16.5 29 15.5 Q 28.8 14.3 29.5 14 Z " /><path fill="rgb(133,207,44)" stroke="rgb(133,207,44)" stroke-width="0" opacity="0.1803921568627451" d="M 18.5 15 Q 19.5 15.5 18.5 16 Q 17.5 15.5 18.5 15 Z " /><path fill="rgb(133,207,44)" stroke="rgb(133,207,44)" stroke-width="0" opacity="0.1803921568627451" d="M 75.5 16 L 76 16.5 L 72.5 20 L 72 19.5 L 75.5 16 Z " /><path fill="rgb(133,207,44)" stroke="rgb(133,207,44)" stroke-width="0" opacity="0.1803921568627451" d="M 19.5 17 L 21 18.5 L 20.5 19 L 19 17.5 L 19.5 17 Z " /><path fill="rgb(133,207,44)" stroke="rgb(133,207,44)" stroke-width="0" opacity="0.1803921568627451" d="M 31.5 18 Q 32.8 17.8 33 18.5 Q 32.8 19.3 31.5 19 Q 30.5 18.5 31.5 18 Z " /><path fill="rgb(133,207,44)" stroke="rgb(133,207,44)" stroke-width="0" opacity="0.1803921568627451" d="M 34.5 19 Q 35.5 19.5 34.5 20 Q 33.5 19.5 34.5 19 Z " /><path fill="rgb(133,207,44)" stroke="rgb(133,207,44)" stroke-width="0" opacity="0.1803921568627451" d="M 20.5 20 L 21 20.5 L 17.5 24 L 17 23.5 L 20.5 20 Z " /><path fill="rgb(133,207,44)" stroke="rgb(133,207,44)" stroke-width="0" opacity="0.1803921568627451" d="M 36.5 20 Q 37.5 20.5 36.5 21 Q 35.5 20.5 36.5 20 Z " /><path fill="rgb(133,207,44)" stroke="rgb(133,207,44)" stroke-width="0" opacity="0.1803921568627451" d="M 38.5 21 Q 39.5 21.5 38.5 22 Q 37.5 21.5 38.5 21 Z " /><path fill="rgb(133,207,44)" stroke="rgb(133,207,44)" stroke-width="0" opacity="0.1803921568627451" d="M 52.5 21 L 53 21.5 L 51.5 23 L 51 22.5 L 52.5 21 Z " /><path fill="rgb(133,207,44)" stroke="rgb(133,207,44)" stroke-width="0" opacity="0.1803921568627451" d="M 69.5 21 L 70 21.5 L 66.5 25 L 66 24.5 L 69.5 21 Z " /><path fill="rgb(133,207,44)" stroke="rgb(133,207,44)" stroke-width="0" opacity="0.1803921568627451" d="M 0.5 22 L 2.5 22 L 3 22.5 L 2.5 23 L 0.5 23 Q -0.5 22.5 0.5 22 Z " /><path fill="rgb(133,207,44)" stroke="rgb(133,207,44)" stroke-width="0" opacity="0.1803921568627451" d="M 40.5 22 Q 41.5 22.5 40.5 23 Q 39.5 22.5 40.5 22 Z " /><path fill="rgb(133,207,44)" stroke="rgb(133,207,44)" stroke-width="0" opacity="0.1803921568627451" d="M 6.5 23 L 8.5 23 L 9 23.5 L 8.5 24 L 6.5 24 Q 5.5 23.5 6.5 23 Z " /><path fill="rgb(133,207,44)" stroke="rgb(133,207,44)" stroke-width="0" opacity="0.1803921568627451" d="M 42.5 23 Q 43.8 22.8 44 23.5 Q 43.8 24.3 42.5 24 Q 41.5 23.5 42.5 23 Z " /><path fill="rgb(133,207,44)" stroke="rgb(133,207,44)" stroke-width="0" opacity="0.1803921568627451" d="M 12.5 24 L 14.5 24 L 15 24.5 L 14.5 25 L 12.5 25 Q 11.5 24.5 12.5 24 Z " /><path fill="rgb(133,207,44)" stroke="rgb(133,207,44)" stroke-width="0" opacity="0.1803921568627451" d="M 45.5 24 Q 46.5 24.5 45.5 25 Q 44.5 24.5 45.5 24 Z " /><path fill="rgb(133,207,44)" stroke="rgb(133,207,44)" stroke-width="0" opacity="0.1803921568627451" d="M 49.5 24 Q 50.5 24.5 49.5 25 Q 48.5 24.5 49.5 24 Z " /><path fill="rgb(133,207,44)" stroke="rgb(133,207,44)" stroke-width="0" opacity="0.1803921568627451" d="M 0.5 25 Q 1.5 25.5 0.5 26 Q -0.5 25.5 0.5 25 Z " /><path fill="rgb(133,207,44)" stroke="rgb(133,207,44)" stroke-width="0" opacity="0.1803921568627451" d="M 47.5 25 Q 48.5 25.5 47.5 26 Q 46.5 25.5 47.5 25 Z " /><path fill="rgb(133,207,44)" stroke="rgb(133,207,44)" stroke-width="0" opacity="0.1803921568627451" d="M 1.5 27 Q 2.5 27.5 1.5 28 Q 0.5 27.5 1.5 27 Z " /><path fill="rgb(133,207,44)" stroke="rgb(133,207,44)" stroke-width="0" opacity="0.1803921568627451" d="M 62.5 27 Q 63.5 27.5 62.5 28 Q 61.5 27.5 62.5 27 Z " /><path fill="rgb(133,207,44)" stroke="rgb(133,207,44)" stroke-width="0" opacity="0.1803921568627451" d="M 59.5 28 Q 60.5 28.5 59.5 29 Q 58.5 28.5 59.5 28 Z " /><path fill="rgb(133,207,44)" stroke="rgb(133,207,44)" stroke-width="0" opacity="0.1803921568627451" d="M 2.5 29 L 6 32.5 L 5.5 33 L 2 29.5 L 2.5 29 Z " /><path fill="rgb(133,207,44)" stroke="rgb(133,207,44)" stroke-width="0" opacity="0.1803921568627451" d="M 57.5 29 L 59 30.5 L 58.5 31 L 57 29.5 L 57.5 29 Z " /><path fill="rgb(133,207,44)" stroke="rgb(133,207,44)" stroke-width="0" opacity="0.1803921568627451" d="M 60.5 31 Q 61.5 31.5 60.5 32 Q 59.5 31.5 60.5 31 Z " /><path fill="rgb(133,207,44)" stroke="rgb(133,207,44)" stroke-width="0" opacity="0.1803921568627451" d="M 73.5 31 L 80.5 31 L 81 31.5 L 80.5 32 L 73.5 32 Q 72.5 31.5 73.5 31 Z " /><path fill="rgb(133,207,44)" stroke="rgb(133,207,44)" stroke-width="0" opacity="0.1803921568627451" d="M 25.5 32 Q 26.5 32.5 25.5 33 Q 24.5 32.5 25.5 32 Z " /><path fill="rgb(133,207,44)" stroke="rgb(133,207,44)" stroke-width="0" opacity="0.1803921568627451" d="M 62.5 32 Q 63.5 32.5 62.5 33 Q 61.5 32.5 62.5 32 Z " /><path fill="rgb(133,207,44)" stroke="rgb(133,207,44)" stroke-width="0" opacity="0.1803921568627451" d="M 70.5 32 Q 71.8 31.8 72 32.5 Q 71.8 33.3 70.5 33 L 69.5 34 L 69 33.5 L 70.5 32 Z " /><path fill="rgb(133,207,44)" stroke="rgb(133,207,44)" stroke-width="0" opacity="0.1803921568627451" d="M 83.5 32 Q 84.5 32.5 83.5 33 Q 82.5 32.5 83.5 32 Z " /><path fill="rgb(133,207,44)" stroke="rgb(133,207,44)" stroke-width="0" opacity="0.1803921568627451" d="M 7.5 33 Q 8.5 33.5 7.5 34 Q 6.5 33.5 7.5 33 Z " /><path fill="rgb(133,207,44)" stroke="rgb(133,207,44)" stroke-width="0" opacity="0.1803921568627451" d="M 21.5 33 Q 22.5 33.5 21.5 34 Q 20.5 33.5 21.5 33 Z " /><path fill="rgb(133,207,44)" stroke="rgb(133,207,44)" stroke-width="0" opacity="0.1803921568627451" d="M 28.5 33 Q 29.5 33.5 28.5 34 Q 27.5 33.5 28.5 33 Z " /><path fill="rgb(133,207,44)" stroke="rgb(133,207,44)" stroke-width="0" opacity="0.1803921568627451" d="M 64.5 33 Q 65.5 33.5 64.5 34 Q 63.5 33.5 64.5 33 Z " /><path fill="rgb(133,207,44)" stroke="rgb(133,207,44)" stroke-width="0" opacity="0.1803921568627451" d="M 85.5 33 L 91 38.5 L 90.5 39 L 85 33.5 L 85.5 33 Z " /><path fill="rgb(133,207,44)" stroke="rgb(133,207,44)" stroke-width="0" opacity="0.1803921568627451" d="M 9.5 34 Q 10.5 34.5 9.5 35 Q 8.5 34.5 9.5 34 Z " /><path fill="rgb(133,207,44)" stroke="rgb(133,207,44)" stroke-width="0" opacity="0.1803921568627451" d="M 18.5 34 Q 19.8 33.8 20 34.5 Q 19.8 35.3 18.5 35 Q 17.5 34.5 18.5 34 Z " /><path fill="rgb(133,207,44)" stroke="rgb(133,207,44)" stroke-width="0" opacity="0.1803921568627451" d="M 30.5 34 Q 31.5 34.5 30.5 35 Q 29.5 34.5 30.5 34 Z " /><path fill="rgb(133,207,44)" stroke="rgb(133,207,44)" stroke-width="0" opacity="0.1803921568627451" d="M 66.5 34 Q 67.8 33.8 68 34.5 Q 67.8 35.3 66.5 35 Q 65.5 34.5 66.5 34 Z " /><path fill="rgb(133,207,44)" stroke="rgb(133,207,44)" stroke-width="0" opacity="0.1803921568627451" d="M 32.5 35 Q 33.5 35.5 32.5 36 Q 31.5 35.5 32.5 35 Z " /><path fill="rgb(133,207,44)" stroke="rgb(133,207,44)" stroke-width="0" opacity="0.1803921568627451" d="M 34.5 36 Q 35.5 36.5 34.5 37 Q 33.5 36.5 34.5 36 Z " /><path fill="rgb(133,207,44)" stroke="rgb(133,207,44)" stroke-width="0" opacity="0.1803921568627451" d="M 36.5 37 Q 37.5 37.5 36.5 38 Q 35.5 37.5 36.5 37 Z " /><path fill="rgb(133,207,44)" stroke="rgb(133,207,44)" stroke-width="0" opacity="0.1803921568627451" d="M 43.5 40 Q 44.5 40.5 43.5 41 Q 42.5 40.5 43.5 40 Z " /><path fill="rgb(133,207,44)" stroke="rgb(133,207,44)" stroke-width="0" opacity="0.1803921568627451" d="M 91.5 40 Q 92.3 40.3 92 41.5 Q 91.5 42.5 91 41.5 Q 90.8 40.3 91.5 40 Z " /><path fill="rgb(133,207,44)" stroke="rgb(133,207,44)" stroke-width="0" opacity="0.1803921568627451" d="M 34.5 41 L 35 41.5 L 30.5 46 L 30 45.5 L 34.5 41 Z " /><path fill="rgb(133,207,44)" stroke="rgb(133,207,44)" stroke-width="0" opacity="0.1803921568627451" d="M 39.5 41 L 40 41.5 L 34.5 47 L 34 46.5 L 39.5 41 Z " /><path fill="rgb(133,207,44)" stroke="rgb(133,207,44)" stroke-width="0" opacity="0.1803921568627451" d="M 45.5 41 Q 46.5 41.5 45.5 42 Q 44.5 41.5 45.5 41 Z " /><path fill="rgb(133,207,44)" stroke="rgb(133,207,44)" stroke-width="0" opacity="0.1803921568627451" d="M 47.5 42 Q 48.5 42.5 47.5 43 Q 46.5 42.5 47.5 42 Z " /><path fill="rgb(133,207,44)" stroke="rgb(133,207,44)" stroke-width="0" opacity="0.1803921568627451" d="M 75.5 42 L 76 42.5 L 73.5 45 L 73 44.5 L 75.5 42 Z " /><path fill="rgb(133,207,44)" stroke="rgb(133,207,44)" stroke-width="0" opacity="0.1803921568627451" d="M 80.5 42 Q 81.8 41.8 82 42.5 Q 81.8 43.3 80.5 43 Q 79.5 42.5 80.5 42 Z " /><path fill="rgb(133,207,44)" stroke="rgb(133,207,44)" stroke-width="0" opacity="0.1803921568627451" d="M 49.5 43 Q 50.5 43.5 49.5 44 Q 48.5 43.5 49.5 43 Z " /><path fill="rgb(133,207,44)" stroke="rgb(133,207,44)" stroke-width="0" opacity="0.1803921568627451" d="M 85.5 43 L 87.5 43 L 88 43.5 L 87.5 44 L 85.5 44 Q 84.5 43.5 85.5 43 Z " /><path fill="rgb(133,207,44)" stroke="rgb(133,207,44)" stroke-width="0" opacity="0.1803921568627451" d="M 51.5 44 Q 52.8 43.8 53 44.5 Q 52.8 45.3 51.5 45 Q 50.5 44.5 51.5 44 Z " /><path fill="rgb(133,207,44)" stroke="rgb(133,207,44)" stroke-width="0" opacity="0.1803921568627451" d="M 54.5 45 Q 55.5 45.5 54.5 46 Q 53.5 45.5 54.5 45 Z " /><path fill="rgb(133,207,44)" stroke="rgb(133,207,44)" stroke-width="0" opacity="0.1803921568627451" d="M 56.5 46 Q 57.5 46.5 56.5 47 Q 55.5 46.5 56.5 46 Z " /><path fill="rgb(133,207,44)" stroke="rgb(133,207,44)" stroke-width="0" opacity="0.1803921568627451" d="M 58.5 47 Q 59.5 47.5 58.5 48 Q 57.5 47.5 58.5 47 Z " /><path fill="rgb(133,207,44)" stroke="rgb(133,207,44)" stroke-width="0" opacity="0.1803921568627451" d="M 71.5 47 Q 72.5 47.5 71.5 48 Q 70.5 47.5 71.5 47 Z " /><path fill="rgb(133,207,44)" stroke="rgb(133,207,44)" stroke-width="0" opacity="0.1803921568627451" d="M 60.5 48 L 62 49.5 L 61.5 50 L 60 48.5 L 60.5 48 Z " /><path fill="rgb(133,207,44)" stroke="rgb(133,207,44)" stroke-width="0" opacity="0.1803921568627451" d="M 25.5 49 L 26 49.5 L 21.5 54 L 21 53.5 L 25.5 49 Z " /><path fill="rgb(133,207,44)" stroke="rgb(133,207,44)" stroke-width="0" opacity="0.1803921568627451" d="M 30.5 49 L 31 49.5 L 26.5 54 L 26 53.5 L 30.5 49 Z " /><path fill="rgb(133,207,44)" stroke="rgb(133,207,44)" stroke-width="0" opacity="0.1803921568627451" d="M 72.5 49 Q 73.5 49.5 72.5 50 Q 71.5 49.5 72.5 49 Z " /><path fill="rgb(133,207,44)" stroke="rgb(133,207,44)" stroke-width="0" opacity="0.1803921568627451" d="M 73.5 51 L 75 52.5 L 74.5 53 L 73 51.5 L 73.5 51 Z " /><path fill="rgb(133,207,44)" stroke="rgb(133,207,44)" stroke-width="0" opacity="0.1803921568627451" d="M 62.5 52 Q 63.3 52.3 63 53.5 Q 62.5 54.5 62 53.5 Q 61.8 52.3 62.5 52 Z " /><path fill="rgb(133,207,44)" stroke="rgb(133,207,44)" stroke-width="0" opacity="0.1803921568627451" d="M 78.5 53 L 80.5 53 L 81 53.5 L 80.5 54 L 78.5 54 Q 77.5 53.5 78.5 53 Z " /><path fill="rgb(133,207,44)" stroke="rgb(133,207,44)" stroke-width="0" opacity="0.1803921568627451" d="M 19.5 54 Q 20.5 54.5 19.5 55 Q 18.5 54.5 19.5 54 Z " /><path fill="rgb(133,207,44)" stroke="rgb(133,207,44)" stroke-width="0" opacity="0.1803921568627451" d="M 84.5 54 L 86.5 54 L 87 54.5 L 86.5 55 L 84.5 55 Q 83.5 54.5 84.5 54 Z " /><path fill="rgb(133,207,44)" stroke="rgb(133,207,44)" stroke-width="0" opacity="0.1803921568627451" d="M 17.5 55 L 18 55.5 L 16.5 57 L 16 56.5 L 17.5 55 Z " /><path fill="rgb(133,207,44)" stroke="rgb(133,207,44)" stroke-width="0" opacity="0.1803921568627451" d="M 63.5 55 Q 64.5 55.5 63.5 56 Q 62.5 55.5 63.5 55 Z " /><path fill="rgb(133,207,44)" stroke="rgb(133,207,44)" stroke-width="0" opacity="0.1803921568627451" d="M 88.5 55 L 90 56.5 L 90 57.5 L 85.5 62 L 85 61.5 L 89 57.5 L 89 56.5 L 88 55.5 L 88.5 55 Z " /><path fill="rgb(133,207,44)" stroke="rgb(133,207,44)" stroke-width="0" opacity="0.1803921568627451" d="M 21.5 58 L 22 58.5 L 20.5 60 L 20 59.5 L 21.5 58 Z " /><path fill="rgb(133,207,44)" stroke="rgb(133,207,44)" stroke-width="0" opacity="0.1803921568627451" d="M 65.5 58 L 69 61.5 L 68.5 62 L 65 58.5 L 65.5 58 Z " /><path fill="rgb(133,207,44)" stroke="rgb(133,207,44)" stroke-width="0" opacity="0.1803921568627451" d="M 14.5 61 Q 15.5 61.5 14.5 62 Q 13.5 61.5 14.5 61 Z " /><path fill="rgb(133,207,44)" stroke="rgb(133,207,44)" stroke-width="0" opacity="0.1803921568627451" d="M 17.5 61 Q 18.5 61.5 17.5 62 Q 16.5 61.5 17.5 61 Z " /><path fill="rgb(133,207,44)" stroke="rgb(133,207,44)" stroke-width="0" opacity="0.1803921568627451" d="M 70.5 62 Q 71.5 62.5 70.5 63 Q 69.5 62.5 70.5 62 Z " /><path fill="rgb(133,207,44)" stroke="rgb(133,207,44)" stroke-width="0" opacity="0.1803921568627451" d="M 83.5 62 Q 84.5 62.5 83.5 63 Q 82.5 62.5 83.5 62 Z " /><path fill="rgb(133,207,44)" stroke="rgb(133,207,44)" stroke-width="0" opacity="0.1803921568627451" d="M 72.5 63 Q 73.8 62.8 74 63.5 Q 73.8 64.3 72.5 64 Q 71.5 63.5 72.5 63 Z " /><path fill="rgb(133,207,44)" stroke="rgb(133,207,44)" stroke-width="0" opacity="0.1803921568627451" d="M 80.5 63 Q 81.8 62.8 82 63.5 Q 81.8 64.3 80.5 64 Q 79.5 63.5 80.5 63 Z " /><path fill="rgb(184,255,70)" stroke="rgb(184,255,70)" stroke-width="0" opacity="0.011764705882352941" d="M 63.5 8 Q 64.5 8.5 63.5 9 Q 62.5 8.5 63.5 8 Z " /><path fill="rgb(184,255,70)" stroke="rgb(184,255,70)" stroke-width="0" opacity="0.011764705882352941" d="M 83.5 8 Q 84.5 8.5 83.5 9 Q 82.5 8.5 83.5 8 Z " /><path fill="rgb(184,255,70)" stroke="rgb(184,255,70)" stroke-width="0" opacity="0.011764705882352941" d="M 39.5 21 Q 40.5 21.5 39.5 22 Q 38.5 21.5 39.5 21 Z " /><path fill="rgb(184,255,70)" stroke="rgb(184,255,70)" stroke-width="0" opacity="0.011764705882352941" d="M 70.5 21 Q 71.5 21.5 70.5 22 Q 69.5 21.5 70.5 21 Z " /><path fill="rgb(184,255,70)" stroke="rgb(184,255,70)" stroke-width="0" opacity="0.011764705882352941" d="M 9.5 23 Q 10.5 23.5 9.5 24 Q 8.5 23.5 9.5 23 Z " /><path fill="rgb(184,255,70)" stroke="rgb(184,255,70)" stroke-width="0" opacity="0.011764705882352941" d="M 1.5 28 Q 2.5 28.5 1.5 29 Q 0.5 28.5 1.5 28 Z " /><path fill="rgb(184,255,70)" stroke="rgb(184,255,70)" stroke-width="0" opacity="0.011764705882352941" d="M 60.5 28 Q 61.5 28.5 60.5 29 Q 59.5 28.5 60.5 28 Z " /><path fill="rgb(184,255,70)" stroke="rgb(184,255,70)" stroke-width="0" opacity="0.011764705882352941" d="M 6.5 33 Q 7.5 33.5 6.5 34 Q 5.5 33.5 6.5 33 Z " /><path fill="rgb(184,255,70)" stroke="rgb(184,255,70)" stroke-width="0" opacity="0.011764705882352941" d="M 8.5 34 Q 9.5 34.5 8.5 35 Q 7.5 34.5 8.5 34 Z " /><path fill="rgb(184,255,70)" stroke="rgb(184,255,70)" stroke-width="0" opacity="0.011764705882352941" d="M 12.5 35 Q 13.5 35.5 12.5 36 Q 11.5 35.5 12.5 35 Z " /><path fill="rgb(184,255,70)" stroke="rgb(184,255,70)" stroke-width="0" opacity="0.011764705882352941" d="M 37.5 38 Q 38.5 38.5 37.5 39 Q 36.5 38.5 37.5 38 Z " /><path fill="rgb(184,255,70)" stroke="rgb(184,255,70)" stroke-width="0" opacity="0.011764705882352941" d="M 91.5 44 Q 92.5 44.5 91.5 45 Q 90.5 44.5 91.5 44 Z " /><path fill="rgb(184,255,70)" stroke="rgb(184,255,70)" stroke-width="0" opacity="0.011764705882352941" d="M 28.5 46 Q 29.5 46.5 28.5 47 Q 27.5 46.5 28.5 46 Z " /><path fill="rgb(184,255,70)" stroke="rgb(184,255,70)" stroke-width="0" opacity="0.011764705882352941" d="M 57.5 47 Q 58.5 47.5 57.5 48 Q 56.5 47.5 57.5 47 Z " /><path fill="rgb(184,255,70)" stroke="rgb(184,255,70)" stroke-width="0" opacity="0.011764705882352941" d="M 32.5 48 Q 33.5 48.5 32.5 49 Q 31.5 48.5 32.5 48 Z " /><path fill="rgb(184,255,70)" stroke="rgb(184,255,70)" stroke-width="0" opacity="0.011764705882352941" d="M 81.5 53 Q 82.5 53.5 81.5 54 Q 80.5 53.5 81.5 53 Z " /><path fill="rgb(184,255,70)" stroke="rgb(184,255,70)" stroke-width="0" opacity="0.011764705882352941" d="M 18.5 54 Q 19.5 54.5 18.5 55 Q 17.5 54.5 18.5 54 Z " /><path fill="rgb(184,255,70)" stroke="rgb(184,255,70)" stroke-width="0" opacity="0.011764705882352941" d="M 87.5 54 Q 88.5 54.5 87.5 55 Q 86.5 54.5 87.5 54 Z " /><path fill="rgb(184,255,70)" stroke="rgb(184,255,70)" stroke-width="0" opacity="0.011764705882352941" d="M 23.5 56 Q 24.5 56.5 23.5 57 Q 22.5 56.5 23.5 56 Z " /><path fill="rgb(184,255,70)" stroke="rgb(184,255,70)" stroke-width="0" opacity="0.011764705882352941" d="M 69.5 62 Q 70.5 62.5 69.5 63 Q 68.5 62.5 69.5 62 Z " /><path fill="rgb(184,255,70)" stroke="rgb(184,255,70)" stroke-width="0" opacity="0.011764705882352941" d="M 84.5 62 Q 85.5 62.5 84.5 63 Q 83.5 62.5 84.5 62 Z " /><path fill="rgb(184,255,70)" stroke="rgb(184,255,70)" stroke-width="0" opacity="0.011764705882352941" d="M 71.5 63 Q 72.5 63.5 71.5 64 Q 70.5 63.5 71.5 63 Z " /><path fill="rgb(255,255,127)" stroke="rgb(255,255,127)" stroke-width="0" opacity="0.00784313725490196" d="M 25.5 6 Q 26.5 6.5 25.5 7 Q 24.5 6.5 25.5 6 Z " /><path fill="rgb(255,255,127)" stroke="rgb(255,255,127)" stroke-width="0" opacity="0.00784313725490196" d="M 3.5 22 Q 4.5 22.5 3.5 23 Q 2.5 22.5 3.5 22 Z " /><path fill="rgb(255,255,127)" stroke="rgb(255,255,127)" stroke-width="0" opacity="0.00784313725490196" d="M 40.5 41 Q 41.5 41.5 40.5 42 Q 39.5 41.5 40.5 41 Z " /><path fill="rgb(255,255,127)" stroke="rgb(255,255,127)" stroke-width="0" opacity="0.00784313725490196" d="M 78.5 42 Q 79.5 42.5 78.5 43 Q 77.5 42.5 78.5 42 Z " /><path fill="rgb(255,255,127)" stroke="rgb(255,255,127)" stroke-width="0" opacity="0.00784313725490196" d="M 73.5 50 Q 74.5 50.5 73.5 51 Q 72.5 50.5 73.5 50 Z " /><path fill="rgb(255,255,255)" stroke="rgb(255,255,255)" stroke-width="0" opacity="0.00392156862745098" d="M 26.5 7 Q 27.5 7.5 26.5 8 Q 25.5 7.5 26.5 7 Z " /><path fill="rgb(255,255,255)" stroke="rgb(255,255,255)" stroke-width="0" opacity="0.00392156862745098" d="M 64.5 7 Q 65.5 7.5 64.5 8 Q 63.5 7.5 64.5 7 Z " /><path fill="rgb(255,255,255)" stroke="rgb(255,255,255)" stroke-width="0" opacity="0.00392156862745098" d="M 28.5 10 Q 29.5 10.5 28.5 11 Q 27.5 10.5 28.5 10 Z " /><path fill="rgb(255,255,255)" stroke="rgb(255,255,255)" stroke-width="0" opacity="0.00392156862745098" d="M 17.5 14 Q 18.5 14.5 17.5 15 Q 16.5 14.5 17.5 14 Z " /><path fill="rgb(255,255,255)" stroke="rgb(255,255,255)" stroke-width="0" opacity="0.00392156862745098" d="M 76.5 16 Q 77.5 16.5 76.5 17 Q 75.5 16.5 76.5 16 Z " /><path fill="rgb(255,255,255)" stroke="rgb(255,255,255)" stroke-width="0" opacity="0.00392156862745098" d="M 53.5 17 Q 54.5 17.5 53.5 18 Q 52.5 17.5 53.5 17 Z " /><path fill="rgb(255,255,255)" stroke="rgb(255,255,255)" stroke-width="0" opacity="0.00392156862745098" d="M 37.5 20 Q 38.5 20.5 37.5 21 Q 36.5 20.5 37.5 20 Z " /><path fill="rgb(255,255,255)" stroke="rgb(255,255,255)" stroke-width="0" opacity="0.00392156862745098" d="M 16.5 23 Q 17.5 23.5 16.5 24 Q 15.5 23.5 16.5 23 Z " /><path fill="rgb(255,255,255)" stroke="rgb(255,255,255)" stroke-width="0" opacity="0.00392156862745098" d="M 63.5 27 Q 64.5 27.5 63.5 28 Q 62.5 27.5 63.5 27 Z " /><path fill="rgb(255,255,255)" stroke="rgb(255,255,255)" stroke-width="0" opacity="0.00392156862745098" d="M 72.5 31 Q 73.5 31.5 72.5 32 Q 71.5 31.5 72.5 31 Z " /><path fill="rgb(255,255,255)" stroke="rgb(255,255,255)" stroke-width="0" opacity="0.00392156862745098" d="M 63.5 32 Q 64.5 32.5 63.5 33 Q 62.5 32.5 63.5 32 Z " /><path fill="rgb(255,255,255)" stroke="rgb(255,255,255)" stroke-width="0" opacity="0.00392156862745098" d="M 16.5 35 Q 17.5 35.5 16.5 36 Q 15.5 35.5 16.5 35 Z " /><path fill="rgb(255,255,255)" stroke="rgb(255,255,255)" stroke-width="0" opacity="0.00392156862745098" d="M 88.5 35 Q 89.5 35.5 88.5 36 Q 87.5 35.5 88.5 35 Z " /><path fill="rgb(255,255,255)" stroke="rgb(255,255,255)" stroke-width="0" opacity="0.00392156862745098" d="M 33.5 36 Q 34.5 36.5 33.5 37 Q 32.5 36.5 33.5 36 Z " /><path fill="rgb(255,255,255)" stroke="rgb(255,255,255)" stroke-width="0" opacity="0.00392156862745098" d="M 46.5 42 Q 47.5 42.5 46.5 43 Q 45.5 42.5 46.5 42 Z " /><path fill="rgb(255,255,255)" stroke="rgb(255,255,255)" stroke-width="0" opacity="0.00392156862745098" d="M 29.5 45 Q 30.5 45.5 29.5 46 Q 28.5 45.5 29.5 45 Z " /><path fill="rgb(255,255,255)" stroke="rgb(255,255,255)" stroke-width="0" opacity="0.00392156862745098" d="M 59.5 48 Q 60.5 48.5 59.5 49 Q 58.5 48.5 59.5 48 Z " /><path fill="rgb(255,255,255)" stroke="rgb(255,255,255)" stroke-width="0" opacity="0.00392156862745098" d="M 31.5 49 Q 32.5 49.5 31.5 50 Q 30.5 49.5 31.5 49 Z " /><path fill="rgb(255,255,255)" stroke="rgb(255,255,255)" stroke-width="0" opacity="0.00392156862745098" d="M 61.5 51 Q 62.5 51.5 61.5 52 Q 60.5 51.5 61.5 51 Z " /><path fill="rgb(255,255,255)" stroke="rgb(255,255,255)" stroke-width="0" opacity="0.00392156862745098" d="M 20.5 53 Q 21.5 53.5 20.5 54 Q 19.5 53.5 20.5 53 Z " /><path fill="rgb(255,255,255)" stroke="rgb(255,255,255)" stroke-width="0" opacity="0.00392156862745098" d="M 21.5 59 Q 22.5 59.5 21.5 60 Q 20.5 59.5 21.5 59 Z " /><path fill="rgb(255,255,255)" stroke="rgb(255,255,255)" stroke-width="0" opacity="0.00392156862745098" d="M 13.5 60 Q 14.5 60.5 13.5 61 Q 12.5 60.5 13.5 60 Z " /><path fill="rgb(255,255,255)" stroke="rgb(255,255,255)" stroke-width="0" opacity="0.00392156862745098" d="M 82.5 63 Q 83.5 63.5 82.5 64 Q 81.5 63.5 82.5 63 Z " /><path fill="rgb(155,208,46)" stroke="rgb(155,208,46)" stroke-width="0" opacity="0.03137254901960784" d="M 72.5 0 L 73 0.5 L 71.5 2 L 71 1.5 L 72.5 0 Z " /><path fill="rgb(155,208,46)" stroke="rgb(155,208,46)" stroke-width="0" opacity="0.03137254901960784" d="M 12.5 2 Q 13.5 2.5 12.5 3 Q 11.5 2.5 12.5 2 Z " /><path fill="rgb(155,208,46)" stroke="rgb(155,208,46)" stroke-width="0" opacity="0.03137254901960784" d="M 17.5 2 Q 18.5 2.5 17.5 3 Q 16.5 2.5 17.5 2 Z " /><path fill="rgb(155,208,46)" stroke="rgb(155,208,46)" stroke-width="0" opacity="0.03137254901960784" d="M 5.5 5 L 6 5.5 L 2.5 9 L 2 8.5 L 5.5 5 Z " /><path fill="rgb(155,208,46)" stroke="rgb(155,208,46)" stroke-width="0" opacity="0.03137254901960784" d="M 82.5 5 Q 83.5 5.5 82.5 6 Q 81.5 5.5 82.5 5 Z " /><path fill="rgb(155,208,46)" stroke="rgb(155,208,46)" stroke-width="0" opacity="0.03137254901960784" d="M 62.5 9 L 63 9.5 L 61.5 11 L 61 10.5 L 62.5 9 Z " /><path fill="rgb(155,208,46)" stroke="rgb(155,208,46)" stroke-width="0" opacity="0.03137254901960784" d="M 3.5 11 Q 4.5 11.5 3.5 12 Q 2.5 11.5 3.5 11 Z " /><path fill="rgb(155,208,46)" stroke="rgb(155,208,46)" stroke-width="0" opacity="0.03137254901960784" d="M 14.5 13 Q 15.5 13.5 14.5 14 Q 13.5 13.5 14.5 13 Z " /><path fill="rgb(155,208,46)" stroke="rgb(155,208,46)" stroke-width="0" opacity="0.03137254901960784" d="M 29.5 13 Q 30.5 13.5 29.5 14 Q 28.5 13.5 29.5 13 Z " /><path fill="rgb(155,208,46)" stroke="rgb(155,208,46)" stroke-width="0" opacity="0.03137254901960784" d="M 78.5 14 L 79 14.5 L 77.5 16 L 77 15.5 L 78.5 14 Z " /><path fill="rgb(155,208,46)" stroke="rgb(155,208,46)" stroke-width="0" opacity="0.03137254901960784" d="M 30.5 17 Q 31.5 17.5 30.5 18 Q 29.5 17.5 30.5 17 Z " /><path fill="rgb(155,208,46)" stroke="rgb(155,208,46)" stroke-width="0" opacity="0.03137254901960784" d="M 20.5 19 Q 21.5 19.5 20.5 20 Q 19.5 19.5 20.5 19 Z " /><path fill="rgb(155,208,46)" stroke="rgb(155,208,46)" stroke-width="0" opacity="0.03137254901960784" d="M 52.5 20 Q 53.5 20.5 52.5 21 Q 51.5 20.5 52.5 20 Z " /><path fill="rgb(155,208,46)" stroke="rgb(155,208,46)" stroke-width="0" opacity="0.03137254901960784" d="M 71.5 20 Q 72.5 20.5 71.5 21 Q 70.5 20.5 71.5 20 Z " /><path fill="rgb(155,208,46)" stroke="rgb(155,208,46)" stroke-width="0" opacity="0.03137254901960784" d="M 41.5 22 Q 42.5 22.5 41.5 23 Q 40.5 22.5 41.5 22 Z " /><path fill="rgb(155,208,46)" stroke="rgb(155,208,46)" stroke-width="0" opacity="0.03137254901960784" d="M 50.5 23 Q 51.5 23.5 50.5 24 Q 49.5 23.5 50.5 23 Z " /><path fill="rgb(155,208,46)" stroke="rgb(155,208,46)" stroke-width="0" opacity="0.03137254901960784" d="M 15.5 24 Q 16.5 24.5 15.5 25 Q 14.5 24.5 15.5 24 Z " /><path fill="rgb(155,208,46)" stroke="rgb(155,208,46)" stroke-width="0" opacity="0.03137254901960784" d="M 65.5 25 L 66 25.5 L 64.5 27 L 64 26.5 L 65.5 25 Z " /><path fill="rgb(155,208,46)" stroke="rgb(155,208,46)" stroke-width="0" opacity="0.03137254901960784" d="M 0.5 26 Q 1.5 26.5 0.5 27 Q -0.5 26.5 0.5 26 Z " /><path fill="rgb(155,208,46)" stroke="rgb(155,208,46)" stroke-width="0" opacity="0.03137254901960784" d="M 81.5 31 Q 82.5 31.5 81.5 32 Q 80.5 31.5 81.5 31 Z " /><path fill="rgb(155,208,46)" stroke="rgb(155,208,46)" stroke-width="0" opacity="0.03137254901960784" d="M 23.5 32 Q 24.5 32.5 23.5 33 Q 22.5 32.5 23.5 32 Z " /><path fill="rgb(155,208,46)" stroke="rgb(155,208,46)" stroke-width="0" opacity="0.03137254901960784" d="M 27.5 33 Q 28.5 33.5 27.5 34 Q 26.5 33.5 27.5 33 Z " /><path fill="rgb(155,208,46)" stroke="rgb(155,208,46)" stroke-width="0" opacity="0.03137254901960784" d="M 65.5 33 Q 66.5 33.5 65.5 34 Q 64.5 33.5 65.5 33 Z " /><path fill="rgb(155,208,46)" stroke="rgb(155,208,46)" stroke-width="0" opacity="0.03137254901960784" d="M 68.5 33 Q 69.5 33.5 68.5 34 Q 67.5 33.5 68.5 33 Z " /><path fill="rgb(155,208,46)" stroke="rgb(155,208,46)" stroke-width="0" opacity="0.03137254901960784" d="M 29.5 34 Q 30.5 34.5 29.5 35 Q 28.5 34.5 29.5 34 Z " /><path fill="rgb(155,208,46)" stroke="rgb(155,208,46)" stroke-width="0" opacity="0.03137254901960784" d="M 13.5 35 L 15.5 35 L 16 35.5 L 15.5 36 L 13.5 36 Q 12.5 35.5 13.5 35 Z " /><path fill="rgb(155,208,46)" stroke="rgb(155,208,46)" stroke-width="0" opacity="0.03137254901960784" d="M 31.5 35 Q 32.5 35.5 31.5 36 Q 30.5 35.5 31.5 35 Z " /><path fill="rgb(155,208,46)" stroke="rgb(155,208,46)" stroke-width="0" opacity="0.03137254901960784" d="M 36.5 39 L 37 39.5 L 35.5 41 L 35 40.5 L 36.5 39 Z " /><path fill="rgb(155,208,46)" stroke="rgb(155,208,46)" stroke-width="0" opacity="0.03137254901960784" d="M 41.5 40 Q 42.8 39.8 43 40.5 Q 42.8 41.3 41.5 41 Q 40.5 40.5 41.5 40 Z " /><path fill="rgb(155,208,46)" stroke="rgb(155,208,46)" stroke-width="0" opacity="0.03137254901960784" d="M 44.5 41 Q 45.5 41.5 44.5 42 Q 43.5 41.5 44.5 41 Z " /><path fill="rgb(155,208,46)" stroke="rgb(155,208,46)" stroke-width="0" opacity="0.03137254901960784" d="M 79.5 42 Q 80.5 42.5 79.5 43 Q 78.5 42.5 79.5 42 Z " /><path fill="rgb(155,208,46)" stroke="rgb(155,208,46)" stroke-width="0" opacity="0.03137254901960784" d="M 84.5 43 Q 85.5 43.5 84.5 44 Q 83.5 43.5 84.5 43 Z " /><path fill="rgb(155,208,46)" stroke="rgb(155,208,46)" stroke-width="0" opacity="0.03137254901960784" d="M 90.5 44 Q 91.5 44.5 90.5 45 Q 89.5 44.5 90.5 44 Z " /><path fill="rgb(155,208,46)" stroke="rgb(155,208,46)" stroke-width="0" opacity="0.03137254901960784" d="M 53.5 45 Q 54.5 45.5 53.5 46 Q 52.5 45.5 53.5 45 Z " /><path fill="rgb(155,208,46)" stroke="rgb(155,208,46)" stroke-width="0" opacity="0.03137254901960784" d="M 72.5 45 L 73 45.5 L 71.5 47 L 71 46.5 L 72.5 45 Z " /><path fill="rgb(155,208,46)" stroke="rgb(155,208,46)" stroke-width="0" opacity="0.03137254901960784" d="M 55.5 46 Q 56.5 46.5 55.5 47 Q 54.5 46.5 55.5 46 Z " /><path fill="rgb(155,208,46)" stroke="rgb(155,208,46)" stroke-width="0" opacity="0.03137254901960784" d="M 27.5 47 L 28 47.5 L 26.5 49 L 26 48.5 L 27.5 47 Z " /><path fill="rgb(155,208,46)" stroke="rgb(155,208,46)" stroke-width="0" opacity="0.03137254901960784" d="M 33.5 47 Q 34.5 47.5 33.5 48 Q 32.5 47.5 33.5 47 Z " /><path fill="rgb(155,208,46)" stroke="rgb(155,208,46)" stroke-width="0" opacity="0.03137254901960784" d="M 61.5 50 Q 62.5 50.5 61.5 51 Q 60.5 50.5 61.5 50 Z " /><path fill="rgb(155,208,46)" stroke="rgb(155,208,46)" stroke-width="0" opacity="0.03137254901960784" d="M 75.5 52 Q 76.5 52.5 75.5 53 Q 74.5 52.5 75.5 52 Z " /><path fill="rgb(155,208,46)" stroke="rgb(155,208,46)" stroke-width="0" opacity="0.03137254901960784" d="M 25.5 54 L 26 54.5 L 24.5 56 L 24 55.5 L 25.5 54 Z " /><path fill="rgb(155,208,46)" stroke="rgb(155,208,46)" stroke-width="0" opacity="0.03137254901960784" d="M 89.5 55 Q 90.5 55.5 89.5 56 Q 88.5 55.5 89.5 55 Z " /><path fill="rgb(155,208,46)" stroke="rgb(155,208,46)" stroke-width="0" opacity="0.03137254901960784" d="M 15.5 57 L 16 57.5 L 14.5 59 L 14 58.5 L 15.5 57 Z " /><path fill="rgb(155,208,46)" stroke="rgb(155,208,46)" stroke-width="0" opacity="0.03137254901960784" d="M 22.5 57 Q 23.5 57.5 22.5 58 Q 21.5 57.5 22.5 57 Z " /><path fill="rgb(155,208,46)" stroke="rgb(155,208,46)" stroke-width="0" opacity="0.03137254901960784" d="M 64.5 57 Q 65.5 57.5 64.5 58 Q 63.5 57.5 64.5 57 Z " /><path fill="rgb(155,208,46)" stroke="rgb(155,208,46)" stroke-width="0" opacity="0.03137254901960784" d="M 19.5 60 Q 20.5 60.5 19.5 61 Q 18.5 60.5 19.5 60 Z " /><path fill="rgb(155,208,46)" stroke="rgb(155,208,46)" stroke-width="0" opacity="0.03137254901960784" d="M 15.5 62 Q 16.8 61.8 17 62.5 Q 16.8 63.3 15.5 63 Q 14.5 62.5 15.5 62 Z " /></svg>